<svg xmlns="http://www.w3.org/2000/svg" style="display: none;">
    <defs>
        <symbol id="TEMPERATURE" viewBox="0 0 512 512">
            <path d="M416 0c-52.9 0-96 43.1-96 96s43.1 96 96 96 96-43.1 96-96-43.1-96-96-96zm0 128c-17.7 0-32-14.3-32-32s14.3-32 32-32 32 14.3 32 32-14.3 32-32 32zm-160-16C256 50.1 205.9 0 144 0S32 50.1 32 112v166.5C12.3 303.2 0 334 0 368c0 79.5 64.5 144 144 144s144-64.5 144-144c0-34-12.3-64.9-32-89.5V112zM144 448c-44.1 0-80-35.9-80-80 0-25.5 12.2-48.9 32-63.8V112c0-26.5 21.5-48 48-48s48 21.5 48 48v192.2c19.8 14.8 32 38.3 32 63.8 0 44.1-35.9 80-80 80zm16-125.1V112c0-8.8-7.2-16-16-16s-16 7.2-16 16v210.9c-18.6 6.6-32 24.2-32 45.1 0 26.5 21.5 48 48 48s48-21.5 48-48c0-20.9-13.4-38.5-32-45.1z" />
        </symbol>
        <symbol id="HUMIDITY" viewBox="0 0 512 512">
            <path d="M160.1 22.1C109.1 179.8 0 222.7 0 333.9 0 432.3 85.9 512 192 512s192-79.7 192-178.1c0-111.8-108.9-153.3-160.1-311.8-8.7-28.8-54-30.1-63.8 0zM416 0c-52.9 0-96 43.1-96 96s43.1 96 96 96 96-43.1 96-96-43.1-96-96-96zm0 128c-17.7 0-32-14.3-32-32s14.3-32 32-32 32 14.3 32 32-14.3 32-32 32z" />
        </symbol>
        <symbol id="CLOUDS" viewBox="0 0 640 512">
            <path d="M544 320c-.6 0-1.1.2-1.6.2 1.1-5.2 1.6-10.6 1.6-16.2 0-44.2-35.8-80-80-80-24.6 0-46.3 11.3-61 28.8-18.6-35.9-55.8-60.8-99-60.8-61.9 0-112 50.1-112 112 0 7.3.8 14.3 2.1 21.2-38.3 12.6-66.1 48.3-66.1 90.8 0 53 43 96 96 96h320c53 0 96-43 96-96s-43-96-96-96zM304 160c40.7 0 78.6 17.2 105.4 46.5 9.8-5.6 20.5-9.4 31.6-11.8 4.3-10.8 7-22.3 7-34.7 0-53-43-96-96-96-14.1 0-27.4 3.2-39.5 8.7C296.6 30.3 256 0 208 0 151.6 0 105.3 41.9 97.6 96.2c-.5 0-1-.2-1.6-.2-53 0-96 43-96 96s43 96 96 96h65.6c8.1-71.8 68.5-128 142.4-128z" />
        </symbol>
        <symbol id="RAIN" viewBox="0 0 512 512">
            <path d="M183.9 370.1c-7.6-4.4-17.4-1.8-21.8 6l-64 112c-4.4 7.7-1.7 17.5 6 21.8 2.5 1.4 5.2 2.1 7.9 2.1 5.5 0 10.9-2.9 13.9-8.1l64-112c4.4-7.6 1.7-17.4-6-21.8zm96 0c-7.6-4.4-17.4-1.8-21.8 6l-64 112c-4.4 7.7-1.7 17.5 6 21.8 2.5 1.4 5.2 2.1 7.9 2.1 5.5 0 10.9-2.9 13.9-8.1l64-112c4.4-7.6 1.7-17.4-6-21.8zm-192 0c-7.6-4.4-17.4-1.8-21.8 6l-64 112c-4.4 7.7-1.7 17.5 6 21.8 2.5 1.4 5.2 2.1 7.9 2.1 5.5 0 10.9-2.9 13.9-8.1l64-112c4.4-7.6 1.7-17.4-6-21.8zm384 0c-7.6-4.4-17.4-1.8-21.8 6l-64 112c-4.4 7.7-1.7 17.5 6 21.8 2.5 1.4 5.2 2.1 7.9 2.1 5.5 0 10.9-2.9 13.9-8.1l64-112c4.4-7.6 1.7-17.4-6-21.8zm-96 0c-7.6-4.4-17.4-1.8-21.8 6l-64 112c-4.4 7.7-1.7 17.5 6 21.8 2.5 1.4 5.2 2.1 7.9 2.1 5.5 0 10.9-2.9 13.9-8.1l64-112c4.4-7.6 1.7-17.4-6-21.8zM416 128c-.6 0-1.1.2-1.6.2 1.1-5.2 1.6-10.6 1.6-16.2 0-44.2-35.8-80-80-80-24.6 0-46.3 11.3-61 28.8C256.4 24.8 219.3 0 176 0 114.2 0 64 50.1 64 112c0 7.3.8 14.3 2.1 21.2C27.8 145.8 0 181.5 0 224c0 53 43 96 96 96h320c53 0 96-43 96-96s-43-96-96-96z" />
        </symbol>        
        <symbol id="SNOW" viewBox="0 0 448 512">
            <path d="M388.1 333.5l52.7-14.3c4.2-1.1 6.7-5.5 5.6-9.8l-4.1-15.5c-1.1-4.3-5.5-6.8-9.7-5.7l-83.2 22.6-93.8-54.8 93.8-54.8 83.2 22.6c4.2 1.1 8.6-1.4 9.7-5.7l4.1-15.5c1.1-4.3-1.4-8.7-5.6-9.8l-52.7-14.3 55.9-32.7c3.8-2.2 5.1-7.1 2.9-10.9L439 121c-2.2-3.8-7-5.1-10.8-2.9l-55.9 32.7 14.1-53.3c1.1-4.3-1.4-8.7-5.6-9.8l-15.3-4.1c-4.2-1.1-8.6 1.4-9.7 5.7l-22.3 84.2-93.8 54.8V118.6l61-61.6c3.1-3.1 3.1-8.2 0-11.3l-11.2-11.3c-3.1-3.1-8.1-3.1-11.2 0l-38.6 39V8c0-4.4-3.5-8-7.9-8H216c-4.4 0-7.9 3.6-7.9 8v65.4l-38.6-39c-3.1-3.1-8.1-3.1-11.2 0l-11.2 11.3c-3.1 3.1-3.1 8.2 0 11.3l60.9 61.7v109.7l-93.8-54.8-22.1-84.4c-1.1-4.3-5.5-6.8-9.7-5.7l-15.3 4.1c-4.2 1.1-6.7 5.5-5.6 9.8l14.1 53.3L19.7 118c-3.8-2.2-8.6-.9-10.8 2.9L1 134.8c-2.2 3.8-.9 8.7 2.9 10.9l55.9 32.7-52.6 14.4c-4.2 1.1-6.7 5.5-5.6 9.8l4.1 15.5c1.1 4.3 5.5 6.8 9.7 5.7l83.2-22.6 93.8 54.8-93.8 54.8-83.2-22.6c-4.2-1.1-8.6 1.4-9.7 5.7l-4.1 15.5c-1.1 4.3 1.4 8.7 5.6 9.8l52.7 14.3L4 366.1c-3.8 2.2-5.1 7.1-2.9 10.9L9 390.9c2.2 3.8 7 5.1 10.8 2.9l55.9-32.7-14.1 53.3c-1.1 4.3 1.4 8.7 5.6 9.8l15.3 4.1c4.2 1.1 8.6-1.4 9.7-5.7l22.3-84.2 93.8-54.8v109.7l-61 61.7c-3.1 3.1-3.1 8.2 0 11.3l11.2 11.3c3.1 3.1 8.1 3.1 11.2 0l38.6-39V504c0 4.4 3.5 8 7.9 8H232c4.4 0 7.9-3.6 7.9-8v-65.4l38.6 39c3.1 3.1 8.1 3.1 11.2 0l11.2-11.3c3.1-3.1 3.1-8.2 0-11.3L240 393.3V283.7l93.8 54.8 22.3 84.2c1.1 4.3 5.5 6.8 9.7 5.7l15.3-4.1c4.2-1.1 6.7-5.5 5.6-9.8l-14.1-53.3 55.9 32.7c3.8 2.2 8.6.9 10.8-2.9l7.9-13.9c2.2-3.8.9-8.7-2.9-10.9l-56.2-32.7z" />
        </symbol>
        <symbol id="WIND" viewBox="0 0 512 512">
            <path d="M16 224h336c59.8 0 106.8-54.6 93.8-116.7-7.6-36.3-36.9-65.6-73.2-73.2-55.9-11.7-105.8 25.4-115.1 76.6-1.6 9 5.8 17.2 14.9 17.2h18.4c7.2 0 12.9-5.2 14.7-12.1 6.6-25.2 33.2-42.4 61.7-33.5 14.3 4.4 25.9 16.1 30.4 30.4 10.3 32.9-14.2 63.3-45.6 63.3H16c-8.8 0-16 7.2-16 16v16c0 8.8 7.2 16 16 16zm144 32H16c-8.8 0-16 7.2-16 16v16c0 8.8 7.2 16 16 16h144c31.4 0 55.9 30.3 45.6 63.3-4.4 14.3-16.1 25.9-30.4 30.4-28.5 8.9-55.1-8.3-61.7-33.5-1.8-6.9-7.5-12.1-14.7-12.1H80.5c-9.2 0-16.6 8.2-14.9 17.2 9.3 51.2 59.2 88.3 115.1 76.6 36.3-7.6 65.6-36.9 73.2-73.2C266.8 310.6 219.8 256 160 256zm235.3 0H243.8c5.4 4.8 10.9 9.6 15.5 15.3 8.1 9.9 13.9 21.1 18.6 32.7h119.2c33.4 0 63.3 24.4 66.5 57.6 3.7 38.1-26.3 70.4-63.7 70.4-27.7 0-51.1-17.7-60-42.4-1.2-3.3-4.1-5.6-7.6-5.6h-33.1c-5 0-9 4.6-7.9 9.5C302.9 443 347 480 400 480c63 0 113.8-52 111.9-115.4-1.8-61.3-55.3-108.6-116.6-108.6z" />
        </symbol>
        <symbol id="UMBRELLA" viewBox="0 0 576 512">
            <path d="M575.7 280.8C547.1 144.5 437.3 62.6 320 49.9V32c0-17.7-14.3-32-32-32s-32 14.3-32 32v17.9C138.3 62.6 29.5 144.5.3 280.8c-2.2 10.1 8.5 21.3 18.7 11.4 52-55 107.7-52.4 158.6 37 5.3 9.5 14.9 8.6 19.7 0 20.2-35.4 44.9-73.2 90.7-73.2 58.5 0 88.2 68.8 90.7 73.2 4.8 8.6 14.4 9.5 19.7 0 51-89.5 107.1-91.4 158.6-37 10.3 10 20.9-1.3 18.7-11.4zM256 301.7V432c0 8.8-7.2 16-16 16-7.8 0-13.2-5.3-15.1-10.7-5.9-16.7-24.1-25.4-40.8-19.5-16.7 5.9-25.4 24.2-19.5 40.8 11.2 31.9 41.6 53.3 75.4 53.3 44.1 0 80-35.9 80-80V301.6c-9.1-7.9-19.8-13.6-32-13.6-12.3.1-22.4 4.8-32 13.7z" />
        </symbol>   
        <symbol id="LOCATION" viewBox= "0 0 512 512">
            <path d="M496 224h-50.88C431.61 143.66 368.34 80.39 288 66.88V16c0-8.84-7.16-16-16-16h-32c-8.84 0-16 7.16-16 16v50.88C143.66 80.39 80.39 143.66 66.88 224H16c-8.84 0-16 7.16-16 16v32c0 8.84 7.16 16 16 16h50.88C80.39 368.34 143.66 431.61 224 445.12V496c0 8.84 7.16 16 16 16h32c8.84 0 16-7.16 16-16v-50.88c80.34-13.51 143.61-76.78 157.12-157.12H496c8.84 0 16-7.16 16-16v-32c0-8.84-7.16-16-16-16zM256 384c-70.7 0-128-57.31-128-128s57.3-128 128-128 128 57.31 128 128-57.3 128-128 128zm0-216c-48.6 0-88 39.4-88 88s39.4 88 88 88 88-39.4 88-88-39.4-88-88-88z" />
        </symbol>   
        <symbol id="MAP" viewBox="0 0 384 512">
            <path d="M172.268 501.67C26.97 291.031 0 269.413 0 192 0 85.961 85.961 0 192 0s192 85.961 192 192c0 77.413-26.97 99.031-172.268 309.67-9.535 13.774-29.93 13.773-39.464 0zM192 272c44.183 0 80-35.817 80-80s-35.817-80-80-80-80 35.817-80 80 35.817 80 80 80z" />
        </symbol>
        <symbol id="KEY" viewBox= "0 0 512 512">
            <path d="M448 0H320c-35.35 0-64 28.65-64 64v153.6L4.69 468.91c-6.25 6.25-6.25 16.38 0 22.63l15.77 15.77c6.25 6.25 16.38 6.25 22.63 0l36.25-36.25 36.11 36.11c6.25 6.25 16.38 6.25 22.63 0l43.16-43.16c6.25-6.25 6.25-16.38 0-22.63l-36.11-36.11L176 374.4l36.91 36.91c6.25 6.25 16.38 6.25 22.63 0l15.77-15.77c6.25-6.25 6.25-16.38 0-22.63L214.4 336l80-80H448c35.35 0 64-28.65 64-64V64c0-35.35-28.65-64-64-64zm-73.37 182.63c-12.5 12.5-32.76 12.5-45.26 0s-12.5-32.76 0-45.25c12.5-12.5 32.76-12.5 45.26 0 12.49 12.49 12.49 32.75 0 45.25zm64-64c-12.5 12.5-32.76 12.5-45.26 0s-12.5-32.76 0-45.25c12.5-12.5 32.76-12.5 45.26 0 12.49 12.49 12.49 32.75 0 45.25z" />
        </symbol>                  
    </defs>
</svg>